
<svg width="70" height="70" viewBox="0 0 46 49" fill="none" xmlns="http://www.w3.org/2000/svg">
<path d="M14.7646 19.9536L20.4017 0.418715C20.4392 0.29147 20.2611 0.219133 20.1984 0.335696L12.0156 15.5135L14.7646 19.9536Z" fill="#FF86AD"/>
<path d="M12.3359 14.9192L19.471 1.68457C19.0523 2.83503 18.6581 4.31118 19.0993 4.93129L19.0884 4.96877L18.3976 3.90771C18.3976 3.90771 17.635 6.46648 18.1682 7.70146L18.1333 8.27846L18.0936 8.41639C17.936 8.17539 17.1777 6.99814 17.0665 6.46367C17.0665 6.46367 16.1331 9.8472 17.297 11.0363L17.0941 11.8303C17.0941 11.8303 15.93 9.93115 15.8344 9.20666C15.8344 9.20666 14.41 12.3087 16.3867 14.3315L16.1494 15.1536C16.0334 15.0108 14.9353 13.6464 14.4302 12.5863C14.7168 13.3336 15.2607 14.5401 16.0636 15.4507L15.7212 16.6375C14.7979 16.5861 13.5787 16.2887 13.3703 16.0817C13.1994 15.9124 12.7668 15.4428 12.3359 14.9192Z" fill="#F03F77"/>
<path d="M17.1072 12.1089C17.0641 12.109 17.0216 12.099 16.983 12.0796C16.9445 12.0603 16.911 12.0322 16.8853 11.9976C15.7958 10.5328 15.5359 9.24276 15.4796 8.6026C15.473 8.52966 15.4957 8.45709 15.5426 8.40086C15.5896 8.34463 15.6569 8.30934 15.7298 8.30276C15.8028 8.29617 15.8754 8.31883 15.9316 8.36575C15.9878 8.41266 16.0231 8.48 16.0297 8.55294C16.0822 9.13388 16.3208 10.3119 17.3295 11.6679C17.3601 11.709 17.3787 11.7577 17.3831 11.8087C17.3876 11.8597 17.3778 11.9109 17.3549 11.9567C17.3319 12.0024 17.2967 12.0409 17.2531 12.0677C17.2095 12.0946 17.1594 12.1089 17.1082 12.1089H17.1072Z" fill="#14082E"/>
<path d="M16.1314 15.4917C16.0936 15.4917 16.0562 15.484 16.0215 15.469C15.9868 15.4539 15.9556 15.4319 15.9298 15.4043C14.5299 13.9111 14.0396 12.5163 13.8747 11.6093C13.8631 11.5378 13.8799 11.4647 13.9217 11.4056C13.9635 11.3465 14.0267 11.3061 14.098 11.2931C14.1692 11.2802 14.2426 11.2957 14.3025 11.3364C14.3624 11.377 14.404 11.4396 14.4182 11.5105C14.5698 12.3446 15.0249 13.6315 16.3327 15.0265C16.3696 15.0658 16.3941 15.115 16.4033 15.1681C16.4126 15.2211 16.4061 15.2757 16.3847 15.3251C16.3633 15.3746 16.328 15.4166 16.283 15.4462C16.238 15.4758 16.1853 15.4916 16.1314 15.4917Z" fill="#14082E"/>
<path d="M18.0556 8.82717C18.0107 8.82719 17.9665 8.81631 17.9268 8.79544C17.8871 8.77458 17.8531 8.74437 17.8277 8.70742C17.2956 7.93364 16.928 7.13213 16.7354 6.32518C16.7262 6.28963 16.7242 6.25261 16.7294 6.21627C16.7347 6.17993 16.7472 6.14501 16.7661 6.11355C16.785 6.08209 16.8101 6.05472 16.8397 6.03304C16.8693 6.01135 16.903 5.9958 16.9387 5.98728C16.9744 5.97876 17.0115 5.97744 17.0477 5.98341C17.084 5.98938 17.1186 6.00251 17.1497 6.02204C17.1808 6.04156 17.2077 6.06709 17.2289 6.09714C17.25 6.12718 17.2649 6.16113 17.2727 6.197C17.4495 6.93761 17.7893 7.67747 18.2827 8.39446C18.3112 8.4359 18.3279 8.48433 18.3309 8.53453C18.3338 8.58473 18.3231 8.6348 18.2997 8.67932C18.2763 8.72385 18.2412 8.76115 18.1982 8.78721C18.1552 8.81326 18.1059 8.82708 18.0556 8.82717Z" fill="#14082E"/>
<path d="M19.0254 5.46704C18.9789 5.4671 18.9331 5.45541 18.8923 5.43307C18.8515 5.41073 18.8171 5.37845 18.7921 5.33923C18.5003 4.88491 18.2588 4.40018 18.072 3.89362C18.0481 3.82507 18.0522 3.74988 18.0834 3.68432C18.1145 3.61875 18.1702 3.56808 18.2384 3.54326C18.3066 3.51844 18.3819 3.52147 18.4479 3.55168C18.5139 3.58189 18.5654 3.63687 18.5911 3.70472C18.7641 4.17344 18.9875 4.62196 19.2574 5.04239C19.284 5.08411 19.2989 5.13222 19.3006 5.18167C19.3022 5.23112 19.2905 5.2801 19.2668 5.32349C19.243 5.36689 19.208 5.4031 19.1654 5.42835C19.1229 5.4536 19.0743 5.46696 19.0248 5.46704H19.0254Z" fill="#14082E"/>
<path d="M14.7633 20.2298C14.7163 20.2297 14.67 20.2176 14.6289 20.1947C14.5878 20.1717 14.5532 20.1386 14.5285 20.0986L11.7796 15.6589C11.754 15.6176 11.7399 15.5703 11.7384 15.5218C11.737 15.4732 11.7483 15.4252 11.7713 15.3824L19.954 0.20465C19.9991 0.120225 20.0738 0.0554999 20.1638 0.0229934C20.2538 -0.00951314 20.3527 -0.00749148 20.4413 0.0286673C20.5299 0.064826 20.6019 0.132553 20.6435 0.218748C20.685 0.304944 20.6932 0.403483 20.6662 0.495309L15.0287 20.0302C15.0139 20.0815 14.9845 20.1275 14.9441 20.1625C14.9037 20.1974 14.854 20.2199 14.801 20.2271C14.7885 20.2289 14.7759 20.2298 14.7633 20.2298ZM12.3334 15.5033L14.6706 19.2785L19.7065 1.82735L12.3334 15.5033Z" fill="#14082E"/>
<path d="M15.0379 37.1892C15.0379 37.1892 13.8858 41.4669 14.1383 45.1577C14.1737 45.6748 13.537 45.947 13.1864 45.5659C11.2559 43.467 7.78444 38.7494 9.82098 33.6507C10.6644 31.5387 12.0127 32.5216 12.0127 32.5216C12.0127 32.5216 15.5007 34.3818 15.0379 37.1892Z" fill="#8D29C1"/>
<path opacity="0.3" d="M9.82097 33.6507C10.6644 31.5387 12.0127 32.5216 12.0127 32.5216C12.0127 32.5216 15.5003 34.3818 15.0375 37.1892C15.0375 37.1892 13.8854 41.4669 14.1379 45.1577C14.1733 45.6748 13.5366 45.947 13.186 45.5659C11.2561 43.4679 7.78442 38.7494 9.82097 33.6507Z" fill="#631DA9"/>
<path d="M15.1566 37.2215C15.1311 37.3487 15.1049 37.4786 15.0816 37.6077C15.0584 37.7368 15.0323 37.8663 15.0093 37.9958C14.9627 38.2549 14.9178 38.5142 14.8747 38.7737C14.8535 38.9036 14.8322 39.0333 14.8125 39.1633C14.7928 39.2934 14.7726 39.4232 14.7529 39.5531C14.7154 39.8132 14.6779 40.0735 14.6453 40.3338C14.6277 40.4639 14.6136 40.5945 14.5968 40.7246C14.5799 40.8546 14.5662 40.9852 14.5527 41.1155C14.5392 41.2457 14.5244 41.3762 14.5128 41.5068L14.494 41.7024L14.4775 41.8981C14.4335 42.42 14.4015 42.9421 14.3893 43.4638C14.3771 43.9855 14.3837 44.5063 14.4176 45.0237L14.4236 45.1208V45.1328V45.1483L14.4249 45.1858C14.4256 45.2105 14.4251 45.2352 14.4232 45.2599C14.417 45.3615 14.3915 45.4611 14.3482 45.5533C14.3047 45.6457 14.2445 45.7293 14.1707 45.7999C14.0242 45.9393 13.8332 46.0223 13.6313 46.0344C13.5293 46.0407 13.427 46.028 13.3296 45.9969C13.3048 45.9898 13.2812 45.9793 13.2574 45.9699C13.2336 45.9605 13.2111 45.948 13.1881 45.9366C13.165 45.9251 13.144 45.9109 13.123 45.8966C13.102 45.8824 13.0812 45.8678 13.0623 45.8517C13.0434 45.8355 13.0233 45.82 13.0061 45.8024L12.98 45.7763L12.9679 45.7638L12.9594 45.7546L12.8912 45.6796C12.5288 45.2841 12.1834 44.8732 11.8549 44.4469C11.6911 44.2345 11.5319 44.0181 11.3772 43.7976C11.2225 43.5771 11.0734 43.3532 10.9298 43.1259C10.7859 42.8984 10.6475 42.6673 10.5149 42.4325C10.3822 42.1978 10.2564 41.9592 10.1376 41.7167C9.8976 41.2318 9.68846 40.7322 9.51139 40.221C9.33406 39.7076 9.19542 39.1816 9.09662 38.6474C9.04726 38.3802 9.00878 38.111 8.98116 37.8399C8.95455 37.5691 8.93937 37.2964 8.93618 37.0245C8.93299 36.7526 8.9418 36.4796 8.9628 36.2078C8.98379 35.9361 9.01902 35.6657 9.06607 35.3973C9.15922 34.8609 9.30454 34.3349 9.49995 33.8267C9.52432 33.7634 9.55037 33.7008 9.57492 33.6378L9.59366 33.5906C9.60004 33.575 9.6066 33.5593 9.61391 33.5434L9.65683 33.4482C9.67145 33.4165 9.68475 33.3846 9.7005 33.3533L9.7481 33.2596L9.77322 33.2128C9.7809 33.197 9.78915 33.1817 9.79833 33.1665L9.85175 33.0749L9.87836 33.0291C9.88754 33.0139 9.8971 32.9993 9.9076 32.9843L9.96664 32.8951C9.97619 32.8803 9.98688 32.8657 9.99794 32.8515L10.0305 32.8084L10.0632 32.7655L10.0797 32.7439L10.0984 32.7233L10.17 32.641C10.1814 32.627 10.1949 32.6142 10.2075 32.6011L10.2465 32.5621L10.2856 32.5233C10.2995 32.511 10.3139 32.499 10.328 32.487L10.3705 32.4508L10.3917 32.4321C10.399 32.4263 10.4069 32.4208 10.4144 32.4152C10.5345 32.3217 10.669 32.2482 10.8125 32.1974C10.9572 32.1467 11.1101 32.1229 11.2634 32.1274L11.3196 32.1292L11.3759 32.1348C11.4134 32.1377 11.4508 32.1453 11.4868 32.1515C11.6307 32.1807 11.7696 32.2307 11.8992 32.2999L11.9466 32.3264C11.9621 32.3359 11.9777 32.3451 11.9931 32.3547C12.0084 32.3642 12.0238 32.3734 12.039 32.3852C12.0465 32.3903 12.0542 32.3959 12.0618 32.4015L12.0735 32.4101L12.0868 32.4203C12.1104 32.4385 12.1265 32.4648 12.1322 32.4941C12.1378 32.5235 12.1326 32.5538 12.1174 32.5796C12.1023 32.6053 12.0783 32.6247 12.0499 32.634C12.0215 32.6433 11.9907 32.6419 11.9633 32.6301L11.9408 32.6204L11.9336 32.6165L11.9247 32.6114C11.9183 32.608 11.9123 32.6047 11.9059 32.6013C11.893 32.5945 11.8797 32.588 11.8662 32.5825C11.8527 32.5771 11.839 32.57 11.8255 32.5638L11.7839 32.5466C11.7282 32.5248 11.6713 32.5066 11.6133 32.492C11.5564 32.4777 11.4986 32.4676 11.4402 32.4619C11.4113 32.4606 11.3826 32.4566 11.3539 32.4572H11.3112L11.2687 32.4596C11.1568 32.4663 11.0471 32.4931 10.9448 32.5387C10.8417 32.5849 10.7465 32.6468 10.6625 32.7223C10.6571 32.727 10.6515 32.7313 10.6462 32.736L10.6307 32.7514L10.5979 32.7818L10.567 32.8121L10.5379 32.8453L10.5087 32.8781C10.4986 32.8889 10.4891 32.9002 10.4802 32.912L10.4258 32.9826L10.4121 33.0014L10.3996 33.0201L10.3745 33.0576L10.3494 33.0951C10.3406 33.1072 10.3325 33.1197 10.325 33.1326L10.2785 33.2115C10.271 33.2246 10.2628 33.2373 10.2556 33.251L10.2345 33.292L10.1921 33.3741C10.1848 33.3876 10.1784 33.4019 10.1721 33.4161L10.1533 33.4585L10.1145 33.5434C10.1018 33.5717 10.0911 33.6014 10.0793 33.6305L10.0444 33.7176C10.0324 33.7463 10.0225 33.778 10.0112 33.8078C9.9895 33.8685 9.96682 33.9288 9.94602 33.9896C9.8628 34.2334 9.78965 34.4798 9.72655 34.7287C9.66245 34.9773 9.61203 35.2292 9.57136 35.4824C9.53069 35.7356 9.50183 35.9904 9.48496 36.2462C9.46809 36.502 9.46415 36.7586 9.4709 37.0146C9.47765 37.2706 9.49545 37.5269 9.52432 37.782C9.55318 38.037 9.59423 38.291 9.64427 38.543C9.74571 39.048 9.88352 39.5451 10.0566 40.0302C10.2311 40.5168 10.4348 40.9924 10.6665 41.4545C10.7821 41.6861 10.9042 41.9146 11.0329 42.1398C11.1616 42.3651 11.2952 42.5875 11.4336 42.807C11.5727 43.0262 11.717 43.2422 11.8665 43.455C12.0161 43.6678 12.1697 43.8776 12.3272 44.0847C12.6439 44.4977 12.9769 44.8978 13.3264 45.285L13.392 45.3573L13.4002 45.3663L13.4031 45.3693L13.4055 45.3715L13.4143 45.3805C13.4203 45.3864 13.4265 45.3919 13.433 45.397C13.4561 45.4168 13.4828 45.4318 13.5118 45.4411C13.5404 45.4507 13.5706 45.4548 13.6008 45.4532C13.633 45.4514 13.6647 45.4442 13.6945 45.4319C13.724 45.419 13.7512 45.4014 13.7751 45.3798C13.7973 45.359 13.8155 45.3343 13.8287 45.3069C13.8422 45.2793 13.8501 45.2493 13.8521 45.2186C13.8527 45.2103 13.8527 45.202 13.8521 45.1937V45.1714V45.1588L13.8471 45.058C13.8176 44.5196 13.8165 43.982 13.8352 43.4464C13.854 42.9108 13.8962 42.3772 13.9544 41.8465C14.0127 41.3158 14.0881 40.7875 14.1807 40.2628L14.2153 40.066C14.227 40.0004 14.2399 39.9349 14.2528 39.8698C14.2772 39.7386 14.3036 39.6075 14.3297 39.478C14.3557 39.3485 14.3837 39.2173 14.4125 39.0874C14.4414 38.9576 14.471 38.8279 14.5008 38.6982C14.5621 38.4392 14.6264 38.1812 14.6959 37.9244C14.7308 37.7961 14.7665 37.6679 14.8031 37.5399C14.8406 37.4119 14.8781 37.285 14.9202 37.1566C14.9302 37.1268 14.9511 37.1019 14.9787 37.0869C15.0064 37.0719 15.0387 37.068 15.0691 37.076C15.0995 37.084 15.1257 37.1033 15.1424 37.1299C15.1591 37.1566 15.1651 37.1886 15.159 37.2194L15.1566 37.2215Z" fill="#14082E"/>
<path d="M4.19595 33.4189C6.93608 37.7552 15.7281 45.0191 28.8879 42.6299C35.0787 41.5055 39.0884 36.8083 40.227 30.7487C43.39 30.4319 44.9387 28.3602 45.2207 25.9624C45.2278 25.905 45.2253 25.8468 45.2131 25.7902C45.1471 25.4859 44.809 25.2949 44.4939 25.428C43.533 25.8344 42.3123 25.8215 40.9934 25.6495C40.792 25.6205 40.5881 25.6136 40.3852 25.629C39.5186 25.704 39.1506 26.1725 38.9462 26.7722C38.9402 26.7909 38.9286 26.8073 38.9128 26.819C38.8971 26.8308 38.878 26.8373 38.8584 26.8376C38.8388 26.8379 38.8195 26.8321 38.8034 26.8209C38.7873 26.8097 38.775 26.7937 38.7685 26.7752C38.5436 26.1637 38.1376 25.7548 37.5259 25.5738C37.3028 25.5117 37.0716 25.4837 36.8401 25.4906C35.7718 25.508 34.7526 25.4632 33.7922 25.338C33.2406 25.2505 32.8877 25.0164 32.683 24.8268C32.6545 24.8002 32.6196 24.7814 32.5817 24.7722C32.5437 24.763 32.5041 24.7637 32.4665 24.7743C32.429 24.7849 32.3948 24.805 32.3673 24.8326C32.3397 24.8603 32.3198 24.8945 32.3093 24.9321C32.3005 24.9645 32.2923 24.9962 32.2849 25.0286C31.8351 26.912 33.7094 29.9314 36.7213 30.3665C35.5823 32.2242 32.6049 36.0812 28.4268 34.1275C25.1415 32.5908 22.4855 28.9562 21.3328 26.171C20.1802 23.3859 17.9789 16.0036 12.2893 12.8316C11.1726 12.2089 9.05697 10.7702 6.37006 12.4516C6.37006 12.4516 4.6795 11.7102 4.30578 13.8057C4.30615 13.8061 -3.55965 21.1472 4.19595 33.4189Z" fill="#8D29C1"/>
<path opacity="0.3" d="M12.2388 39.9939C8.52354 37.9773 5.94516 35.3316 4.67236 33.3174C-3.08304 21.0448 4.78275 13.7044 4.78275 13.7044C4.84833 13.6725 4.91603 13.6453 4.98536 13.6228C5.73374 13.552 6.88677 13.8625 7.32816 16.2367C7.38028 16.5142 7.36132 16.8004 7.27305 17.0686C6.15395 20.4446 5.95303 25.5016 9.99482 31.8965C12.3751 35.6644 19.327 41.643 29.7427 41.5773C30.5272 41.5729 31.3016 41.401 32.0143 41.0731C36.1893 39.147 38.9289 35.2772 39.8966 30.5427C39.9138 30.4607 39.9559 30.3861 40.0172 30.3291C40.0785 30.272 40.156 30.2354 40.239 30.2241C43.2093 29.8141 44.6729 27.7962 44.9461 25.4718C44.9471 25.4643 44.9478 25.457 44.9484 25.4497C45.0144 25.4844 45.0721 25.5331 45.1174 25.5923C45.1627 25.6515 45.1946 25.7199 45.2108 25.7927C45.223 25.8492 45.2256 25.9074 45.2185 25.9649C44.9373 28.3636 43.3877 30.4344 40.2248 30.7511C39.3341 35.489 36.6879 39.3944 32.6154 41.4095C32.5616 41.4361 32.5076 41.4624 32.4532 41.4882L32.4255 41.5015C32.3149 41.554 32.2034 41.6052 32.0909 41.655L32.0649 41.6665C32.0094 41.6908 31.9538 41.7148 31.8981 41.7384H31.8964C31.8378 41.7634 31.7789 41.7878 31.7197 41.8117L31.7009 41.8194C31.6458 41.8417 31.5905 41.8637 31.5349 41.8853L31.5231 41.89C31.4627 41.9136 31.4018 41.9367 31.3409 41.9596L31.3354 41.9614C31.277 41.9832 31.2182 42.0046 31.1591 42.0257L31.1437 42.0311C31.0215 42.0746 30.8981 42.1165 30.7735 42.1569L30.7589 42.1616C30.634 42.2021 30.5077 42.2409 30.38 42.2781L30.3691 42.2813C30.2399 42.3188 30.1098 42.3547 29.9787 42.3891H29.9753C29.6197 42.4817 29.2564 42.5618 28.8853 42.6295C15.7255 45.0189 6.93344 37.7548 4.19331 33.4186C3.82971 32.8432 3.49965 32.2789 3.20315 31.7254C3.42606 32.1198 3.66533 32.5196 3.92098 32.9248C5.27737 35.0733 8.11833 37.9385 12.2388 39.9939Z" fill="#000070"/>
<path opacity="0.3" d="M12.5085 27.1876C9.89428 26.2438 7.93908 22.1871 8.31168 17.9112C8.68428 13.6353 6.37147 12.452 6.37109 12.4518L6.43613 12.4117C7.97469 12.7249 9.18114 15.3892 8.98116 18.4942C8.76899 21.7876 10.1548 24.1831 11.0151 25.2858C11.8754 26.3885 12.7534 26.0847 12.7534 26.0847L12.8976 26.1389C12.8503 26.6585 12.6993 27.0163 12.5205 27.2633C12.5118 27.2134 12.5085 27.1876 12.5085 27.1876Z" fill="#000070"/>
<path opacity="0.6" d="M32.6931 25.3487C32.6645 25.3222 32.6296 25.3035 32.5917 25.2944C32.5538 25.2853 32.5142 25.2861 32.4767 25.2967C32.4391 25.3073 32.405 25.3274 32.3775 25.355C32.35 25.3826 32.33 25.4168 32.3196 25.4544C32.3106 25.4868 32.3023 25.5183 32.295 25.5509C32.2639 25.683 32.2439 25.8174 32.235 25.9529C32.2002 25.6275 32.2148 25.3157 32.2832 25.0292C32.2905 24.9967 32.2988 24.9651 32.3076 24.9326C32.318 24.8951 32.338 24.8608 32.3655 24.8332C32.3931 24.8055 32.4272 24.7855 32.4648 24.7749C32.5024 24.7643 32.542 24.7636 32.5799 24.7727C32.6178 24.7819 32.6527 24.8007 32.6813 24.8273C32.886 25.017 33.2389 25.251 33.7905 25.3386C34.7508 25.4637 35.7708 25.5085 36.8383 25.4911C37.0698 25.4842 37.301 25.5123 37.5241 25.5743C38.1359 25.7553 38.5422 26.1642 38.7667 26.7757C38.7733 26.7942 38.7855 26.8102 38.8016 26.8214C38.8178 26.8326 38.837 26.8385 38.8567 26.8381C38.8763 26.8378 38.8953 26.8313 38.9111 26.8196C38.9268 26.8078 38.9385 26.7915 38.9444 26.7727C39.1489 26.1744 39.5168 25.7045 40.3835 25.6296C40.5863 25.6142 40.7903 25.621 40.9917 25.65C42.3106 25.8217 43.5312 25.835 44.4922 25.4285C44.8072 25.2955 45.1453 25.4864 45.2113 25.7908C45.2235 25.8473 45.2261 25.9055 45.219 25.963C45.2095 26.0433 45.1986 26.1233 45.1862 26.203C45.127 26.081 45.0231 25.9866 44.896 25.9393C44.7689 25.8921 44.6285 25.8957 44.504 25.9495C43.5431 26.356 42.3226 26.343 41.0035 26.171C40.8021 26.142 40.5981 26.1351 40.3953 26.1506C39.5286 26.2255 39.1607 26.694 38.9562 27.2937C38.9503 27.3124 38.9386 27.3287 38.9229 27.3404C38.9071 27.352 38.8882 27.3585 38.8686 27.3588C38.849 27.3592 38.8298 27.3534 38.8137 27.3422C38.7976 27.3311 38.7853 27.3152 38.7787 27.2967C38.5538 26.6852 38.1479 26.2763 37.5359 26.0953C37.3128 26.0332 37.0816 26.0051 36.8502 26.0121C35.7818 26.0295 34.7626 25.9847 33.8023 25.8595C33.2505 25.7729 32.8976 25.5383 32.6931 25.3487Z" fill="white"/>
<path opacity="0.6" d="M6.37008 12.4519C9.05699 10.7715 11.1726 12.2092 12.2893 12.8319C17.9789 16.0039 20.1798 23.3864 21.3329 26.1713C22.4859 28.9563 25.1415 32.5915 28.4268 34.1278C31.4058 35.5208 33.7742 33.9592 35.3014 32.2757C33.802 34.1048 31.2869 36.0751 28.0522 34.562C24.767 33.0253 22.1109 29.3898 20.9582 26.6057C19.8055 23.8217 17.6043 16.4385 11.9146 13.2665C10.798 12.644 8.68233 11.2062 5.99542 12.8867C5.99542 12.8867 5.19868 12.5372 4.57812 12.9961C5.18257 11.9313 6.37008 12.4519 6.37008 12.4519Z" fill="white"/>
<path d="M28.8879 42.6304C15.7281 45.0199 6.93607 37.7559 4.19593 33.4196C-3.55966 21.1471 4.30614 13.8059 4.30614 13.8059C4.67986 11.7105 6.37042 12.4519 6.37042 12.4519C6.37042 12.4519 8.68342 13.6351 8.31101 17.9113C7.9386 22.1874 9.89361 26.2439 12.5078 27.1876C12.5078 27.1876 15.0822 45.126 36.7025 38.263C34.7584 40.4828 32.12 42.0436 28.8879 42.6304Z" fill="white"/>
<path d="M36.2757 38.7278C36.2435 38.7613 36.2111 38.7947 36.1785 38.8279C36.1674 38.8389 36.1566 38.8502 36.1457 38.8612C36.1049 38.9025 36.064 38.9433 36.0229 38.9836L35.9854 39.0211C35.9517 39.0541 35.9178 39.0867 35.8839 39.1193C35.8728 39.1298 35.8619 39.1405 35.8509 39.1508C35.8088 39.1909 35.7664 39.2307 35.7238 39.2702L35.6863 39.305C35.6511 39.3374 35.6155 39.3697 35.5798 39.4017L35.5474 39.4311C35.5038 39.4701 35.4601 39.5088 35.4162 39.5471L35.3787 39.5797C35.3413 39.6116 35.3049 39.6431 35.2676 39.6746L35.2354 39.7019C35.19 39.7394 35.1446 39.7769 35.0987 39.8144L35.0612 39.8445C35.0226 39.8757 34.984 39.9066 34.945 39.9373C34.9344 39.9457 34.9239 39.9544 34.9132 39.9626C34.8663 40.0001 34.8192 40.0366 34.7719 40.072L34.7344 40.1C34.6941 40.1305 34.6536 40.1607 34.6129 40.1909L34.5818 40.2139C34.5335 40.2495 34.4848 40.2849 34.4358 40.32L34.3998 40.3455C34.3578 40.3752 34.3157 40.4047 34.2733 40.4341L34.2428 40.4553C34.1928 40.4898 34.1424 40.5239 34.0917 40.5576L34.057 40.5807C34.0132 40.6099 33.9689 40.6388 33.9247 40.6672L33.8951 40.686C33.8434 40.7191 33.7914 40.7519 33.7392 40.7844L33.7052 40.8053C33.6597 40.8336 33.6138 40.8616 33.5679 40.8893L33.5388 40.9067C33.4856 40.9386 33.432 40.9698 33.378 41.0004L33.3452 41.0192C33.2978 41.0465 33.2502 41.0735 33.2022 41.1001L33.1741 41.1161C33.1192 41.1464 33.064 41.1765 33.0084 41.2064L32.9767 41.2233C32.9274 41.2495 32.8779 41.2755 32.8285 41.3012L32.8009 41.3155C32.7443 41.3446 32.6875 41.3732 32.6305 41.4015L32.5959 41.4185C32.5524 41.4399 32.5089 41.4611 32.4647 41.4821L32.4285 41.4993C32.3194 41.5513 32.2093 41.6018 32.0981 41.6509L32.0628 41.6665C32.0134 41.688 31.9639 41.7096 31.9142 41.7305L31.8943 41.7392C31.8375 41.7632 31.7805 41.7868 31.7232 41.81L31.7065 41.8168L31.7034 41.8181C31.6513 41.8393 31.599 41.8601 31.5465 41.8805L31.5161 41.8925C31.459 41.9146 31.4017 41.9364 31.3443 41.9579L31.3388 41.9597C31.2803 41.9815 31.2216 42.0029 31.1625 42.024L31.1595 42.0251L31.1392 42.0323C31.0811 42.0529 31.0227 42.0732 30.964 42.0932H30.9623C30.9008 42.1139 30.839 42.1344 30.7769 42.1546L30.7623 42.1593C30.7011 42.1792 30.6395 42.1986 30.5777 42.2176L30.5695 42.22C30.507 42.239 30.4449 42.2578 30.3833 42.2763L30.3725 42.2794C30.2454 42.3169 30.1174 42.3523 29.9884 42.3855L29.9748 42.3891C29.9352 42.3994 29.8957 42.4095 29.8557 42.4194L29.837 42.4243L29.7245 42.452L29.6962 42.4588L29.5907 42.4837L29.5519 42.4925C29.5197 42.5 29.4873 42.5073 29.455 42.5144L29.4041 42.5255L29.3171 42.5442L29.2507 42.5579C29.2262 42.563 29.2016 42.5682 29.1769 42.5731C29.1475 42.5791 29.118 42.5849 29.0884 42.5905L29.0346 42.6012C28.9863 42.6105 28.9379 42.6195 28.8894 42.6282C15.7296 45.0177 6.93757 37.7537 4.19744 33.4174L4.19482 33.4135C4.15558 33.351 4.11679 33.289 4.07843 33.2274L4.04731 33.177C4.00908 33.1152 3.97116 33.0534 3.93355 32.9918L3.92868 32.984C3.89119 32.9223 3.8542 32.8608 3.81772 32.7996L3.78811 32.7501C3.7515 32.6885 3.71526 32.627 3.6794 32.5657L3.67565 32.5595C3.63979 32.4983 3.60443 32.4371 3.56957 32.3761L3.54146 32.327C3.50685 32.2662 3.47249 32.2056 3.43837 32.145C3.43706 32.1425 3.43556 32.1401 3.43425 32.1375C3.40039 32.0771 3.3669 32.0168 3.33379 31.9565C3.32479 31.9403 3.31505 31.9242 3.30718 31.9081C3.27407 31.8478 3.24133 31.7875 3.20897 31.7273C3.2084 31.7264 3.20789 31.7254 3.20747 31.7245C3.43038 32.1187 3.66959 32.5185 3.92511 32.9238C5.28206 35.0711 8.1234 37.9362 12.2435 39.9917C8.52824 37.975 5.94985 35.3293 4.67706 33.3151C-3.07947 21.0448 4.78632 13.7044 4.78632 13.7044C4.8519 13.6725 4.9196 13.6453 4.98893 13.6228C5.73731 13.552 6.89034 13.8625 7.33173 16.2367C7.38384 16.5142 7.36489 16.8004 7.27662 17.0686C6.15752 20.4446 5.9566 25.5016 9.99839 31.8965C12.3787 35.6644 19.3306 41.643 29.7463 41.5773C30.5307 41.5729 31.3052 41.401 32.0179 41.0731C33.364 40.4533 34.5955 39.6102 35.6603 38.5794C36.0029 38.4805 36.3505 38.3751 36.7033 38.2634C36.6677 38.3039 36.6319 38.3442 36.5959 38.3843L36.5584 38.4261C36.5273 38.4602 36.4962 38.4943 36.4647 38.528C36.4538 38.5399 36.4431 38.5517 36.4323 38.5633C36.393 38.6055 36.3535 38.6474 36.3138 38.6888L36.2757 38.7278Z" fill="#DFE8F4"/>
<path opacity="0.3" d="M3.23381 19.8323C3.60379 18.0188 4.2459 16.6071 4.7199 15.7419C5.2355 14.8004 5.6602 14.2935 5.67801 14.2723C5.71214 14.2336 5.76007 14.2099 5.81151 14.2061C5.86295 14.2023 5.91383 14.2188 5.95325 14.2521C5.99267 14.2854 6.0175 14.3327 6.02242 14.3841C6.02733 14.4354 6.01196 14.4866 5.97957 14.5268C5.97545 14.5317 5.56293 15.0243 5.06607 15.9323C4.60519 16.7734 3.98051 18.1468 3.62047 19.9119C2.98323 23.0352 3.07375 28.0088 7.12136 33.967C8.74632 36.3588 11.6489 38.6708 14.8859 40.1541C18.0697 41.6111 21.6013 42.3101 25.2748 42.2267C26.6857 42.1926 28.0918 42.0485 29.4802 41.7957C30.3625 41.6379 31.2274 41.395 32.0628 41.0705C31.4455 41.2709 30.8154 41.429 30.1767 41.5438C28.8276 41.7887 27.4616 41.9285 26.0909 41.9619C25.0116 41.9877 23.9317 41.9397 22.8589 41.8184C20.7877 41.5819 18.7909 41.0652 16.924 40.2826C15.3058 39.6042 13.8054 38.7373 12.4644 37.7057C11.3211 36.8266 10.3188 35.8403 9.56386 34.8532C8.02324 32.8391 6.93787 30.632 6.3383 28.2942C5.8585 26.4236 5.687 24.4658 5.82832 22.4752C5.92921 21.0652 6.1829 19.6702 6.58495 18.3149C6.88483 17.3138 7.15228 16.7383 7.16353 16.7143C7.17407 16.6902 7.18934 16.6684 7.20844 16.6503C7.22754 16.6321 7.25008 16.618 7.27472 16.6087C7.29937 16.5994 7.32563 16.5951 7.35196 16.5961C7.37828 16.5971 7.40414 16.6034 7.428 16.6146C7.45186 16.6257 7.47325 16.6416 7.4909 16.6611C7.50855 16.6807 7.5221 16.7036 7.53076 16.7284C7.53943 16.7533 7.54302 16.7797 7.54133 16.806C7.53965 16.8322 7.53271 16.8579 7.52094 16.8815C7.51832 16.8871 7.25124 17.4624 6.95867 18.4422C6.56586 19.7704 6.31838 21.1373 6.2206 22.5189C6.00618 25.5754 6.4665 30.1551 9.87705 34.6143C12.5876 38.1579 18.2699 41.7472 26.0733 41.5691C27.4266 41.5364 28.7754 41.3986 30.1074 41.1569C30.9459 41.0063 31.7688 40.7787 32.5656 40.4771C31.9868 40.655 31.3978 40.7977 30.8018 40.9042C29.5065 41.1381 28.1952 41.2718 26.8794 41.3043C26.0433 41.3241 25.2068 41.2976 24.3737 41.2249C22.5401 41.063 20.7729 40.6707 19.121 40.0589C15.4551 38.7012 13.2934 36.6326 12.331 35.5204C10.9341 33.9057 9.85381 32.2523 9.12004 30.6054C8.53097 29.2835 8.16268 27.9631 8.0253 26.6797C7.7899 24.4813 8.30925 23.168 8.33174 23.1118C8.35137 23.0633 8.38947 23.0246 8.43764 23.0042C8.48581 22.9838 8.54011 22.9834 8.5886 23.003C8.63709 23.0227 8.6758 23.0608 8.6962 23.1089C8.7166 23.1571 8.71704 23.2114 8.6974 23.2599C8.69234 23.2724 8.19286 24.5361 8.41795 26.6368C8.62749 28.5927 9.52825 31.6768 12.6297 35.2614C15.2327 38.2699 20.196 41.0581 26.9101 40.905C28.1927 40.8734 29.471 40.7431 30.7336 40.5152C31.5458 40.3697 32.3442 40.1558 33.1204 39.8758C32.5549 40.0344 31.9911 40.1637 31.4291 40.2635C30.1491 40.4928 28.8535 40.6244 27.5535 40.6571C26.9903 40.6695 26.4357 40.6616 25.89 40.6331C24.2866 40.5485 22.7472 40.2834 21.3148 39.8447C18.1949 38.8889 16.214 37.3269 15.1015 36.1844C13.9889 35.0418 13.0685 33.8793 12.3613 32.7242C11.7935 31.7967 11.3616 30.8728 11.0782 29.978C10.5909 28.4383 10.7088 27.5195 10.7141 27.4811C10.7173 27.4551 10.7256 27.4301 10.7386 27.4074C10.7516 27.3847 10.7689 27.3648 10.7897 27.3488C10.8104 27.3329 10.8341 27.3212 10.8594 27.3145C10.8847 27.3078 10.911 27.3062 10.9369 27.3098C10.9628 27.3134 10.9878 27.3221 11.0103 27.3354C11.0328 27.3487 11.0525 27.3663 11.0681 27.3873C11.0838 27.4082 11.0951 27.4321 11.1014 27.4574C11.1078 27.4828 11.109 27.5092 11.105 27.535C11.1039 27.5435 10.9926 28.4031 11.4542 29.8588C11.8853 31.2208 12.918 33.3762 15.3843 35.9093C16.8295 37.3937 20.6382 40.4256 27.5022 40.2691C28.6946 40.242 29.9797 40.1192 31.3603 39.8741C33.0988 39.5658 34.8651 38.9644 36.6121 38.0863L36.6143 38.0852L36.6183 38.0833C36.6211 38.082 36.6237 38.0805 36.6265 38.0794L36.6297 38.0782L36.6357 38.076L36.6436 38.0732H36.6451H36.6477L36.6554 38.0713L36.6621 38.0696H36.6638H36.6659L36.6749 38.0683L36.6807 38.0674H36.6846C36.6878 38.0674 36.691 38.0674 36.6942 38.0674H36.7037H36.7131H36.7187H36.7201H36.7229C36.7259 38.0674 36.7287 38.0674 36.7315 38.0685L36.7377 38.0694H36.7386H36.742L36.7497 38.0713L36.7562 38.073L36.76 38.0741L36.7665 38.0765L36.7735 38.079L36.7772 38.0807L36.7834 38.0835L36.79 38.0867L36.7931 38.0885C36.7953 38.0897 36.7975 38.0909 36.7995 38.0923L36.8057 38.0958H36.807L36.8093 38.0975L36.8162 38.1026L36.8213 38.1062L36.8229 38.1077L36.8244 38.109C36.827 38.111 36.8295 38.1132 36.8318 38.1155L36.8333 38.1166L36.8359 38.1191L36.8376 38.121H36.8385C36.8409 38.1234 36.8432 38.126 36.8454 38.1286L36.8488 38.1322C36.8493 38.1326 36.8498 38.1331 36.8501 38.1337L36.8516 38.1356C36.8537 38.138 36.8556 38.1408 36.8574 38.1434C36.859 38.1454 36.8604 38.1474 36.8617 38.1494L36.8636 38.1521L36.8668 38.1577L36.8677 38.159L36.8717 38.1657L36.8734 38.1691C36.8741 38.1705 36.8747 38.172 36.8752 38.1734V38.1744C36.8764 38.177 36.8777 38.1794 36.8788 38.182V38.183L36.8799 38.1862C36.8799 38.1884 36.8814 38.1905 36.8822 38.1925L36.885 38.2002C36.8849 38.2007 36.8849 38.2011 36.885 38.2015C36.8849 38.2025 36.8849 38.2034 36.885 38.2044C36.885 38.207 36.8863 38.2096 36.8869 38.2122C36.8874 38.2148 36.888 38.2165 36.8884 38.2186C36.8884 38.2192 36.8884 38.2197 36.8884 38.2203C36.8884 38.2203 36.8884 38.2218 36.8884 38.2225C36.8884 38.2233 36.8893 38.2287 36.8897 38.2319C36.89 38.2351 36.8897 38.2356 36.8897 38.2375V38.2413C36.8897 38.2446 36.8897 38.2478 36.8897 38.2512C36.8897 38.2546 36.8897 38.2548 36.8897 38.2564V38.2604C36.8899 38.2636 36.8899 38.2668 36.8897 38.2699C36.8897 38.2718 36.8897 38.2737 36.8897 38.2756V38.2767V38.2797C36.8897 38.2827 36.8897 38.2855 36.8885 38.2885C36.8874 38.2915 36.8885 38.2924 36.8885 38.2943C36.8885 38.2954 36.8885 38.2967 36.8885 38.2979C36.8885 38.299 36.8872 38.3029 36.8867 38.3055C36.8861 38.3082 36.8857 38.3099 36.885 38.3119L36.8839 38.3159C36.8839 38.3181 36.8822 38.3203 36.8814 38.3224C36.8807 38.3245 36.8799 38.3269 36.879 38.3292L36.8773 38.3329L36.8745 38.3391L36.8713 38.3458L36.8694 38.349L36.8657 38.3554L36.8621 38.3614C36.8621 38.3618 36.8621 38.3623 36.8621 38.3627L36.8604 38.3651L36.8554 38.3719L36.8518 38.3769L36.8503 38.3786L36.849 38.3803L36.8426 38.3874L36.8415 38.3888L36.8389 38.3918L36.837 38.3934L36.8357 38.3947L36.8342 38.3961C35.8709 39.3571 34.769 40.1684 33.5652 40.8029C32.3235 41.4558 30.9708 41.9175 29.5447 42.1756C28.1236 42.4346 26.6843 42.5823 25.2402 42.6173C23.9369 42.6511 22.633 42.5832 21.3403 42.4141C19.0278 42.1038 16.8009 41.4636 14.721 40.5113C12.9309 39.6916 11.2853 38.6607 9.82925 37.4472C8.59095 36.4149 7.54118 35.2875 6.79299 34.1865C4.97367 31.5085 3.78147 28.797 3.249 26.1271C2.82354 23.9875 2.81773 21.8692 3.23381 19.8323Z" fill="#1F3A12"/>
<path opacity="0.3" d="M32.5612 34.2959C34.5666 33.4854 36.0049 31.5327 36.7195 30.3668C33.7076 29.9317 31.8334 26.9123 32.2832 25.0289C32.2905 24.9965 32.2988 24.9648 32.3076 24.9324C32.318 24.8948 32.338 24.8606 32.3655 24.8329C32.3931 24.8053 32.4273 24.7852 32.4648 24.7746C32.5024 24.764 32.542 24.7633 32.5799 24.7725C32.6178 24.7817 32.6528 24.8005 32.6813 24.8271C32.869 24.9985 33.0886 25.1313 33.3275 25.2182C33.2726 26.9522 34.8101 29.2741 37.2209 29.9298C37.2892 29.9482 37.352 29.9827 37.4043 30.0303C37.4565 30.0779 37.4967 30.1373 37.5213 30.2036C37.5459 30.2699 37.5543 30.3411 37.5459 30.4112C37.5374 30.4814 37.5123 30.5486 37.4726 30.6071C36.5227 32.0021 34.828 33.9361 32.5612 34.2959Z" fill="#000070"/>
<path d="M4.17656 13.5603L4.1833 13.5573L4.18799 13.5554L4.1968 13.5519L4.21311 13.5457C4.22379 13.5418 4.23428 13.538 4.2444 13.5346C4.26502 13.5275 4.28526 13.5212 4.30532 13.5159C4.34561 13.5037 4.38535 13.4929 4.42546 13.4833C4.5048 13.4641 4.58505 13.449 4.66592 13.4379C4.82643 13.4158 4.98884 13.4108 5.15041 13.423C5.23083 13.4294 5.3108 13.4405 5.38994 13.4561C5.4686 13.472 5.54616 13.4929 5.62216 13.5187C5.77214 13.5697 5.9147 13.6403 6.04611 13.7288C6.06781 13.7437 6.08323 13.7661 6.08943 13.7918C6.09562 13.8174 6.09216 13.8443 6.07969 13.8675C6.06723 13.8908 6.04664 13.9085 6.02188 13.9175C5.99711 13.9265 5.9699 13.926 5.94546 13.9162L5.94284 13.9151C5.81776 13.8622 5.68623 13.8262 5.55168 13.8079C5.48557 13.7991 5.41896 13.7944 5.35227 13.794C5.286 13.7941 5.2198 13.7979 5.15397 13.8054C5.02294 13.8211 4.89395 13.8507 4.76919 13.8937C4.70738 13.9148 4.6467 13.9391 4.58739 13.9664C4.55797 13.9799 4.5291 13.9943 4.50136 14.0091C4.48749 14.0165 4.474 14.0239 4.46107 14.0316C4.45432 14.0354 4.44832 14.0391 4.44233 14.0429L4.43408 14.0483C4.43282 14.049 4.43163 14.0498 4.43052 14.0507H4.42902C4.36399 14.0832 4.28877 14.0888 4.21968 14.0662C4.15059 14.0436 4.09319 13.9947 4.05992 13.93C4.02666 13.8654 4.02021 13.7903 4.04197 13.7209C4.06373 13.6516 4.11195 13.5936 4.17618 13.5596L4.17656 13.5603Z" fill="#1F3A12"/>
<path d="M12.5075 27.4638C12.4756 27.4638 12.4439 27.4582 12.4138 27.4473C11.7305 27.2007 11.085 26.7575 10.4954 26.1305C9.92916 25.528 9.43886 24.7825 9.03852 23.9146C8.20974 22.1186 7.85363 19.9779 8.03581 17.8873C8.38798 13.8431 6.26615 12.7088 6.2446 12.6977C6.18107 12.6634 6.1335 12.6056 6.11207 12.5367C6.09063 12.4678 6.09704 12.3932 6.12991 12.3289C6.16278 12.2646 6.21952 12.2158 6.28796 12.1928C6.3564 12.1699 6.43112 12.1746 6.49612 12.206C6.52255 12.2195 7.14742 12.5461 7.71288 13.4292C8.03881 13.938 8.28133 14.5311 8.43389 15.1921C8.62244 16.008 8.67361 16.9309 8.58608 17.9352C8.23485 21.9675 10.036 26.0017 12.6014 26.9279C12.6625 26.95 12.7139 26.9929 12.7464 27.0491C12.779 27.1053 12.7907 27.1712 12.7796 27.2352C12.7684 27.2992 12.735 27.3571 12.6853 27.399C12.6356 27.4408 12.5727 27.4637 12.5077 27.4638H12.5075Z" fill="#14082E"/>
<path d="M12.6892 26.1716C12.6459 26.343 12.6084 26.5154 12.5601 26.6712C12.5117 26.8269 12.4557 26.9753 12.374 27.1074C12.2892 27.2407 12.1813 27.3577 12.0553 27.453C11.9161 27.5551 11.7665 27.6423 11.6091 27.7131L11.6068 27.7142C11.5846 27.7246 11.5665 27.7424 11.5558 27.7645C11.545 27.7866 11.5421 27.8117 11.5477 27.8357C11.5532 27.8596 11.5668 27.8809 11.5861 27.8961C11.6055 27.9112 11.6295 27.9193 11.6541 27.9189C11.8611 27.9152 12.0648 27.8662 12.2508 27.7751C12.4467 27.6775 12.6153 27.5329 12.7417 27.3542C12.8669 27.1769 12.9476 26.9719 12.9769 26.7568C12.9905 26.6529 12.9914 26.5476 12.9793 26.4435C12.9678 26.3383 12.9401 26.2356 12.8971 26.1389C12.8877 26.1184 12.8722 26.1013 12.8527 26.0899C12.8332 26.0786 12.8106 26.0736 12.7882 26.0756C12.7657 26.0777 12.7444 26.0867 12.7273 26.1014C12.7101 26.1161 12.698 26.1358 12.6926 26.1577L12.6892 26.1716Z" fill="#1F3A12"/>
<path d="M23.7699 43.3766C22.448 43.3778 21.1279 43.2794 19.8208 43.0821C17.2815 42.6988 14.8162 41.9274 12.5113 40.7949C10.5524 39.8309 8.75684 38.6319 7.17518 37.2307C5.48836 35.7368 4.49633 34.4137 3.96123 33.567C2.17153 30.7349 1.0631 27.9263 0.666888 25.2174C0.348268 23.0419 0.486399 20.927 1.07678 18.9322C1.49339 17.5243 2.13265 16.1921 2.97033 14.9862C3.47131 14.2709 3.89132 13.8273 4.04932 13.669C4.19251 12.9599 4.50064 12.4749 4.96564 12.226C5.49904 11.9412 6.07594 12.0645 6.33739 12.1467C6.91672 11.801 7.50992 11.5709 8.10199 11.4625C8.65177 11.3626 9.21511 11.3634 9.76462 11.4648C10.7733 11.6479 11.5924 12.1164 12.1906 12.458C12.2725 12.5049 12.3499 12.5491 12.4225 12.5892C13.6126 13.2526 14.7345 14.1463 15.7569 15.245C16.6281 16.182 17.4518 17.2937 18.2056 18.5519C19.5774 20.8416 20.4658 23.162 21.1144 24.8578C21.2929 25.324 21.4469 25.7268 21.5866 26.0643C22.7514 28.8783 25.3538 32.3849 28.5424 33.8761C32.2941 35.6303 35.0676 32.3913 36.268 30.5623C34.8876 30.25 33.6441 29.3929 32.8108 28.165C32.0883 27.1012 31.7906 25.9052 32.0144 24.9652C32.0221 24.9314 32.0311 24.8962 32.0418 24.8574C32.0649 24.7742 32.109 24.6983 32.1698 24.637C32.2307 24.5757 32.3064 24.5312 32.3895 24.5076C32.4726 24.484 32.5603 24.4822 32.6443 24.5023C32.7283 24.5225 32.8057 24.5639 32.8691 24.6226C33.0402 24.7811 33.3453 24.9858 33.8306 25.0635C34.7437 25.1824 35.7264 25.2322 36.8342 25.2135C37.1187 25.2088 37.3697 25.2395 37.6027 25.3072C38.1546 25.4704 38.5728 25.8011 38.8502 26.2929C38.9472 26.1061 39.0767 25.938 39.2327 25.7967C39.5223 25.5382 39.8913 25.3932 40.3608 25.3527C40.5836 25.3356 40.8076 25.343 41.0288 25.3746C42.5306 25.5701 43.5974 25.5058 44.3855 25.1726C44.4947 25.126 44.6128 25.104 44.7314 25.1084C44.8501 25.1128 44.9663 25.1433 45.0717 25.1979C45.1752 25.2509 45.2657 25.3262 45.3367 25.4183C45.4077 25.5104 45.4574 25.6171 45.4823 25.7307L45.4851 25.7455C45.5012 25.8278 45.5043 25.9121 45.4941 25.9953C45.3389 27.3144 44.8235 28.4666 44.0034 29.3262C43.5503 29.7985 43.0123 30.1813 42.4176 30.4545C41.8326 30.7264 41.1746 30.9097 40.4588 31C40.167 32.4642 39.708 33.8502 39.0932 35.1229C38.4436 36.4673 37.6229 37.6798 36.6535 38.7268C35.6677 39.7934 34.5158 40.6936 33.2424 41.3924C31.9286 42.1127 30.4796 42.6202 28.9358 42.9004C27.2316 43.2136 25.5026 43.373 23.7699 43.3766ZM5.71215 12.601C5.54223 12.598 5.37424 12.6373 5.22334 12.7155C4.89798 12.8909 4.67982 13.2741 4.57711 13.8543C4.56662 13.9132 4.53736 13.967 4.49371 14.0078C4.48902 14.0121 4.00472 14.4694 3.40815 15.3252C2.60633 16.4846 1.99528 17.7648 1.5982 19.1173C0.713558 22.1316 0.486401 27.0343 4.4283 33.2721C5.0586 34.2696 7.5221 37.7244 12.7553 40.2996C16.1509 41.9705 19.9044 42.8192 23.8068 42.8192C25.4941 42.8169 27.1777 42.6629 28.8374 42.3592C34.6236 41.3084 38.7797 36.9498 39.9548 30.6996C39.9659 30.641 39.9956 30.5876 40.0395 30.5473C40.0834 30.507 40.1392 30.4819 40.1985 30.4759C42.9075 30.2045 44.6378 28.5484 44.9454 25.9321C44.949 25.9049 44.9478 25.8773 44.942 25.8504C44.942 25.8478 44.9409 25.845 44.9405 25.8424C44.9318 25.8098 44.9163 25.7794 44.895 25.7532C44.8737 25.7271 44.8471 25.7057 44.817 25.6906C44.7837 25.6733 44.747 25.6636 44.7095 25.6624C44.6721 25.6612 44.6348 25.6684 44.6005 25.6835C44.1145 25.8896 43.5547 26.0032 42.8891 26.0326C42.3353 26.057 41.7033 26.0217 40.9566 25.9245C40.775 25.8982 40.5911 25.8919 40.4082 25.9057C39.768 25.9606 39.4199 26.2378 39.2064 26.8615C39.1815 26.9342 39.1347 26.9975 39.0724 27.0425C39.01 27.0876 38.9353 27.1123 38.8584 27.1131H38.855C38.779 27.1136 38.7048 27.0904 38.6426 27.0468C38.5804 27.0031 38.5334 26.9411 38.5081 26.8695C38.3094 26.3285 37.9619 25.991 37.4463 25.8388C37.2689 25.7867 37.0715 25.7639 36.8436 25.767C35.7069 25.7858 34.6968 25.7348 33.7554 25.6121L33.7479 25.6111C33.1755 25.5202 32.7902 25.2843 32.5548 25.0832C32.5548 25.0855 32.5538 25.0875 32.5533 25.0898C32.5534 25.0908 32.5534 25.0919 32.5533 25.093C32.3642 25.8849 32.6316 26.9179 33.2689 27.8564C34.0978 29.0771 35.3704 29.8927 36.7606 30.0936C36.8059 30.1001 36.8488 30.1177 36.8856 30.145C36.9224 30.1722 36.9518 30.2081 36.9713 30.2495C36.9907 30.291 36.9996 30.3366 36.997 30.3823C36.9944 30.428 36.9806 30.4723 36.9566 30.5113C36.3323 31.5292 35.2897 32.9447 33.8682 33.9053C33.0576 34.4531 32.214 34.7876 31.3609 34.8985C31.1458 34.9268 30.9291 34.9409 30.7122 34.9409C29.9172 34.9409 29.1118 34.7522 28.3096 34.377C26.7694 33.6578 25.2338 32.419 23.8681 30.7952C22.6989 29.4052 21.7076 27.8005 21.0768 26.2766C20.9341 25.9321 20.7789 25.527 20.599 25.0564C19.362 21.8241 17.0595 15.8074 12.1539 13.0727C12.0789 13.0307 12.0002 12.9857 11.9168 12.9381C10.7829 12.2895 8.88486 11.2039 6.51582 12.6857C6.47766 12.7095 6.43426 12.7237 6.38938 12.727C6.3445 12.7302 6.29951 12.7225 6.2583 12.7044C6.08392 12.6375 5.89893 12.6025 5.71215 12.601Z" fill="#14082E"/>
<path d="M22.5316 38.7258C22.5316 38.7258 22.106 43.4429 23.0519 47.2835C23.1842 47.8213 22.5646 48.2256 22.1245 47.8884C19.7053 46.0343 15.1801 41.7042 16.3862 35.9596C16.8859 33.5796 18.4866 34.3667 18.4866 34.3667C18.4866 34.3667 22.502 35.6839 22.5316 38.7258Z" fill="#8D29C1"/>
<path opacity="0.3" d="M22.1243 47.8885C19.7053 46.0343 15.1801 41.7043 16.3862 35.9597C16.7316 34.315 17.6029 34.1831 18.1082 34.2584C18.2381 34.2769 18.3648 34.3132 18.4848 34.3662H18.4859H18.4874H18.4895H18.4923H18.4934L18.5063 34.3707H18.5082L18.5138 34.3726H18.5153L18.5219 34.3748H18.523L18.5479 34.3838L18.5511 34.3849L18.5592 34.3877L18.5637 34.3894L18.5717 34.3924L18.5774 34.3943L18.5935 34.4003L18.5989 34.4024C16.067 35.6356 17.8196 39.837 17.826 39.8518C18.2466 40.7995 18.8257 41.741 19.623 42.5524C20.4718 43.4163 21.3703 43.2542 22.1405 42.7537C22.2481 42.6838 22.3534 42.6072 22.4555 42.5258C22.5071 44.0033 22.6647 45.7135 23.0502 47.2783C23.184 47.8214 22.5639 48.2256 22.1243 47.8885Z" fill="#000070"/>
<path d="M22.6545 38.7368C22.6503 38.8757 22.6464 39.0179 22.6445 39.1577C22.6427 39.2976 22.6395 39.4389 22.6385 39.5798C22.6365 39.8613 22.6365 40.1424 22.6385 40.4231C22.64 40.5638 22.6412 40.7042 22.644 40.8451C22.6468 40.986 22.6494 41.1262 22.6522 41.2668C22.6597 41.5479 22.6689 41.829 22.6813 42.1101C22.6865 42.2504 22.6955 42.3912 22.7015 42.5306C22.7075 42.67 22.7171 42.8117 22.7266 42.9507C22.7362 43.0898 22.7454 43.2307 22.7562 43.3703L22.7724 43.58L22.7911 43.7894C22.8404 44.3473 22.9026 44.9037 22.9856 45.4557C23.0687 46.0078 23.1716 46.5558 23.3024 47.0953L23.3267 47.1965L23.3298 47.2091L23.3333 47.2252L23.3412 47.2627C23.3464 47.288 23.3503 47.3136 23.3528 47.3393C23.3648 47.4451 23.3566 47.5522 23.3286 47.6549C23.3004 47.7578 23.2536 47.8547 23.1903 47.9407C23.0644 48.1104 22.8826 48.2303 22.677 48.2791C22.5726 48.3038 22.4645 48.3089 22.3583 48.2941C22.3317 48.2913 22.3055 48.2847 22.2792 48.2793C22.253 48.2739 22.2277 48.2651 22.202 48.2574C22.1763 48.2497 22.152 48.2386 22.127 48.2281C22.1021 48.2177 22.0789 48.2058 22.0566 48.1927L22.0227 48.1729L22.006 48.1627L21.99 48.1519L21.9586 48.1298L21.9438 48.1189L21.9331 48.1108L21.8478 48.0454C21.3933 47.6956 20.9544 47.3267 20.531 46.9386C20.3193 46.7449 20.1119 46.5465 19.9089 46.3435C19.7059 46.1404 19.5077 45.9324 19.3146 45.7192C19.1215 45.5068 18.9335 45.2891 18.7506 45.0661C18.5677 44.8431 18.3915 44.6153 18.2221 44.3827C17.8804 43.917 17.5685 43.4302 17.2881 42.9253C17.0067 42.4186 16.7635 41.8916 16.5608 41.3487C16.4597 41.0767 16.3696 40.8008 16.2905 40.5211C16.2114 40.2414 16.1455 39.9585 16.0929 39.6724C16.0393 39.3868 15.9985 39.099 15.9706 38.8092C15.9434 38.5196 15.9303 38.2282 15.9297 37.9383C15.9288 37.3573 15.9844 36.7775 16.0959 36.2073C16.1096 36.1361 16.1256 36.0654 16.1404 35.9946L16.1518 35.9416C16.1555 35.924 16.1593 35.9062 16.1642 35.8882L16.1915 35.7804C16.2011 35.7444 16.2091 35.7084 16.2198 35.6728L16.2526 35.5656L16.2691 35.5122C16.2744 35.4935 16.2802 35.4766 16.2869 35.459L16.3259 35.3531L16.3447 35.3003C16.3516 35.2827 16.3597 35.2654 16.367 35.248L16.4125 35.1436C16.4163 35.135 16.4198 35.1262 16.4239 35.1176L16.4371 35.0919L16.4633 35.0409L16.4895 34.9898L16.5027 34.9643L16.5176 34.9394L16.5774 34.84C16.5874 34.8233 16.5981 34.807 16.6097 34.7913L16.6432 34.7433L16.6771 34.6955C16.6893 34.68 16.7021 34.6648 16.7146 34.6496L16.7521 34.6041L16.7709 34.5812C16.7774 34.5739 16.7845 34.5668 16.7915 34.5597C16.8994 34.4398 17.026 34.3382 17.1663 34.2587C17.3081 34.1791 17.4632 34.1261 17.624 34.1024L17.6834 34.094L17.743 34.0893C17.7828 34.0854 17.8225 34.0867 17.862 34.0863C18.0178 34.0903 18.1721 34.1168 18.3203 34.165L18.3748 34.1838C18.3936 34.1907 18.411 34.1972 18.4288 34.2047C18.4466 34.2122 18.4646 34.2195 18.4824 34.228C18.4912 34.2319 18.5012 34.2364 18.5094 34.2407L18.5231 34.2477L18.5386 34.2557C18.5665 34.27 18.5879 34.2944 18.5984 34.3239C18.609 34.3534 18.6079 34.3858 18.5955 34.4146C18.5831 34.4433 18.5602 34.4662 18.5314 34.4788C18.5027 34.4913 18.4703 34.4924 18.4408 34.4819L18.4294 34.478L18.4106 34.4712C18.4033 34.4688 18.3962 34.4662 18.3885 34.4639C18.3735 34.459 18.3581 34.4545 18.3428 34.45C18.3274 34.4456 18.3117 34.4418 18.2961 34.4375L18.2489 34.4268C18.1859 34.4138 18.1222 34.4047 18.0581 34.3996C17.9951 34.395 17.9318 34.395 17.8688 34.3996L17.8221 34.4043C17.8066 34.4043 17.7914 34.4079 17.7762 34.4103L17.7305 34.4174L17.6855 34.4277C17.5675 34.4552 17.4554 34.5039 17.3547 34.5713C17.2532 34.6392 17.1631 34.7226 17.0876 34.8185C17.0825 34.8243 17.0775 34.8299 17.0726 34.8361L17.0589 34.8548L17.0314 34.8923L17.004 34.9298L16.9793 34.9703L16.9542 35.0106C16.9454 35.0238 16.9374 35.0375 16.9302 35.0516L16.8854 35.1367L16.8741 35.1579L16.8644 35.1802L16.8445 35.2246L16.8248 35.269L16.8147 35.2911C16.8115 35.2984 16.8089 35.3063 16.8059 35.314L16.7712 35.406C16.7656 35.4213 16.7592 35.4363 16.7542 35.4521L16.7394 35.4995L16.7096 35.5941C16.7071 35.602 16.7043 35.6099 16.7021 35.6177L16.6959 35.6421L16.6833 35.6905L16.6578 35.7873C16.6496 35.8198 16.6436 35.8531 16.6365 35.8859L16.6155 35.9845C16.6119 36.0008 16.6089 36.0177 16.6061 36.0347L16.5971 36.0857C16.5853 36.1537 16.5724 36.2214 16.5615 36.2896C16.5184 36.5618 16.4864 36.8352 16.4655 37.1096C16.4436 37.3838 16.4367 37.6589 16.4402 37.9342C16.4438 38.2095 16.4605 38.4833 16.4897 38.7563C16.519 39.0294 16.5621 39.3009 16.6162 39.5702C16.6704 39.8395 16.7366 40.1066 16.814 40.3704C16.8914 40.6343 16.9811 40.8951 17.0805 41.1511C17.2804 41.6654 17.5172 42.1645 17.7891 42.6445C18.0628 43.1256 18.3652 43.5899 18.6946 44.0347C18.8593 44.2576 19.0301 44.4762 19.2072 44.6906C19.3842 44.905 19.5661 45.1149 19.7528 45.3202C19.9402 45.5258 20.1322 45.7269 20.3287 45.9237C20.5253 46.1204 20.7259 46.3134 20.9305 46.5026C21.3404 46.8799 21.7652 47.2402 22.205 47.5835L22.2875 47.6478L22.2978 47.6556L22.3015 47.6584L22.3045 47.6605L22.3162 47.6688L22.322 47.6732L22.328 47.6766L22.34 47.6837C22.37 47.7016 22.4032 47.7132 22.4378 47.718C22.4723 47.7232 22.5074 47.7218 22.5414 47.7141C22.5772 47.7056 22.6113 47.6912 22.6423 47.6714C22.6731 47.651 22.7003 47.6257 22.7229 47.5964C22.7439 47.5683 22.7595 47.5365 22.769 47.5027C22.7787 47.4688 22.7817 47.4332 22.7778 47.3981C22.7771 47.3887 22.7758 47.3793 22.7738 47.37L22.7712 47.3556V47.352L22.7699 47.3457L22.7669 47.3326L22.7427 47.2274C22.6129 46.6665 22.5126 46.1011 22.4335 45.5343C22.3544 44.9674 22.3004 44.3982 22.2635 43.8289C22.2266 43.2596 22.2082 42.6897 22.2082 42.1204V41.908C22.2082 41.8368 22.2097 41.7658 22.2105 41.6946C22.2118 41.5524 22.2153 41.4101 22.2185 41.2679C22.2217 41.1256 22.2269 40.9836 22.2331 40.8415C22.2393 40.6995 22.2463 40.5574 22.2536 40.4156C22.2697 40.1317 22.2894 39.8481 22.3145 39.565C22.327 39.4233 22.3406 39.2817 22.3553 39.1403C22.3711 38.9986 22.3866 38.8583 22.4067 38.7155C22.4112 38.6844 22.4274 38.6561 22.452 38.6365C22.4766 38.617 22.5078 38.6075 22.5391 38.61C22.5705 38.6126 22.5997 38.627 22.6208 38.6503C22.6419 38.6736 22.6533 38.7041 22.6528 38.7355L22.6545 38.7368Z" fill="#14082E"/>
<path opacity="0.25" d="M8.98609 13.4776C9.3763 12.8609 10.5331 12.8926 11.5701 13.5485C12.6071 14.2044 13.1313 15.236 12.7411 15.8535C12.3509 16.471 11.562 15.8569 10.5252 15.201C9.48838 14.5451 8.59587 14.0942 8.98609 13.4776Z" fill="white"/>
<path opacity="0.25" d="M13.0538 16.5788C13.3574 16.3341 13.8496 16.4411 14.1532 16.8175C14.4569 17.194 14.4569 17.6983 14.1532 17.942C13.8496 18.1856 13.4305 17.9217 13.1269 17.546C12.8233 17.1702 12.7502 16.8235 13.0538 16.5788Z" fill="white"/>
<path d="M12.9863 21.2509C12.9854 20.024 13.6468 18.988 14.4636 18.9367C15.2804 18.8853 15.9442 19.8386 15.9442 21.0654C15.9442 22.2921 15.2838 23.3282 14.467 23.3796C13.6502 23.4309 12.9873 22.4778 12.9863 21.2509Z" fill="#000072"/>
<path d="M13.7393 19.9446C13.8968 19.5486 14.2251 19.3273 14.4727 19.4502C14.7203 19.5732 14.7934 19.9937 14.636 20.3898C14.4785 20.786 14.15 21.0071 13.9024 20.8842C13.6548 20.7613 13.5819 20.3413 13.7393 19.9446Z" fill="white"/>
<path opacity="0.4" d="M14.6768 22.2697C14.7977 22.0853 14.9879 22.0162 15.1013 22.1153C15.2147 22.2145 15.2087 22.4444 15.0878 22.6288C14.9669 22.8132 14.7767 22.8825 14.6633 22.7834C14.5499 22.6843 14.5559 22.4543 14.6768 22.2697Z" fill="white"/>
</svg>
